<svg version="1" xmlns="http://www.w3.org/2000/svg" width="960" height="960" viewBox="0 0 720.000000 720.000000"><path d="M59.9 176.7v28.5c.3 7 .3 17.9.1 20.8-.1 1.4-.1 3.1-.1 3.7.2 3.4.3 17.2.1 20.3-.1 1.4-.1 3.1-.1 3.7.2 3.4.3 17.2.1 20.3-.1 1.4-.1 3.1-.1 3.7.2 3.4.3 17.2.1 20.3-.1 1.4-.1 3.1-.1 3.7.2 2.9.2 6.5.3 47.3 0 23.4-.1 43.6-.2 45-.1 1.4-.1 3.1-.1 3.7.2 3.4.3 17.2.1 20.3-.1 1.4-.1 3.1-.1 3.7.2 3.4.3 17.2.1 20.3-.1 1.4-.1 3.1-.1 3.7.2 3.4.3 17.2.1 20.3-.1 1.4-.1 3.1-.1 3.7.2 3.4.3 17.2.1 20.3-.1 1.4-.1 3.2-.1 4 .1 1.6.1 7.8-.1 8.9 0 .3 0 15.6.1 33.8L60 570l62.8-.4c34.5-.2 63.6-.6 64.7-.9 1.1-.2 5.2-.8 9-1.1 3.9-.4 9.3-1.1 12-1.6 2.8-.5 6.4-1.2 8.2-1.5 8.6-1.4 33.2-8.2 40.3-11.2.8-.3 1.7-.7 2-.8 5.3-1.8 19.2-8.1 26-11.8 29.1-15.6 51.8-36.4 64.7-59.4 2.1-3.7 3.8-7 3.8-7.3.1-.3.6-1.4 1.2-2.5 1.8-3.5 5.3-14.8 6.8-22.5 1.7-9.1 1.6-34-.3-36.3-.6-.7-.9-1.6-.6-1.9.7-.8-3.3-12.9-6.7-20.6-2.5-5.5-10.3-18.8-11.9-20.2-.3-.3-2.3-2.8-4.5-5.5-6.1-7.7-17.1-18.1-26.5-25.1-4.7-3.5-9-6.8-9.7-7.4-.7-.5-1.4-1-1.7-1-.2 0-3.4-1.8-7.1-4.1-9.1-5.5-27.8-14.3-36-16.9-2.2-.7-4.9-1.6-6-2-4.5-1.8-6.1-2.3-7.5-2.6-.8-.2-3.9-1-6.8-2l-5.3-1.6 5.8-3.5c5.1-3.1 13.8-9.9 18.3-14.3 1.3-1.3 9.3-11.1 11.8-14.5 2.9-4 8.7-19.5 9.1-24.5 1.3-14.3-.6-24.7-6.5-36.5-7.7-15.3-22.6-29.2-42.5-39.7-10.1-5.3-26.7-11.5-35.5-13.2-1.1-.2-3.7-.9-5.9-1.4-2.2-.6-5.8-1.3-8-1.7-2.2-.3-5.3-.8-7-1.1-1.6-.3-27.2-.8-56.8-1.1l-53.8-.5v26.9z"/><path d="M466.6 151c-2.8.3-6 .6-7.3.5-1.3 0-2.3.2-2.3.5s-1 .5-2.2.6c-2.2 0-10 1.1-14.3 1.9-2.3.5-8.8 2.1-15.5 3.8-2.5.6-4.7 1.2-5 1.2-.3.1-3 .9-6 1.9-37.3 12.3-69.3 34.2-85.5 58.6-15 22.6-19.7 45.5-14.3 69.9.6 3.1 1.2 5.9 1.2 6.3.1.3.4 1 .9 1.4.4.4.7 1.3.7 2.1 0 4.7 14.3 28.3 20.6 34 1.4 1.3 2.3 2.3 1.9 2.3-.3 0 3.2 3.4 7.7 7.5 9.2 8.4 23.5 18.3 34.3 23.8 10 5.1 20.2 9.7 21.5 9.7.6 0 1.8.4 2.8 1 1.7 1 19.9 6.6 23.7 7.4 1.1.2 3.4.7 5.2 1.1l3.1.7-9.7 13.2c-5.4 7.2-14 18.9-19.1 26.1-5.2 7.1-9.8 13.4-10.3 14-.4.5-3.1 4.1-5.8 8-2.8 3.8-5.9 8.1-7 9.5-2.5 3.3-10.1 13.6-16.8 23-3 4.1-5.8 7.6-6.3 7.8-.4.2-.8.8-.8 1.3 0 .8-4.7 7.3-9 12.6-.6.7-1 1.5-1 1.8 0 .3-.8 1.4-1.7 2.4-1 1-3.8 4.7-6.3 8.2l-4.4 6.2 4.4 3.9c13.4 11.6 39.6 25.8 59.5 32.2 10.6 3.4 18.9 5.8 21 6.1.6 0 2.8.5 5 1s4.9 1 6 1.1c1.1.1 2 .3 2 .4 0 .1 1.4.3 3 .5 1.7.2 4.6.6 6.5.9 15 2.7 51.8 2.7 69 .1 13-2 17.6-2.9 26-5 10-2.5 23.1-6.7 29-9.2 9.1-3.9 24.5-11.7 24.8-12.4.2-.5.8-.9 1.3-.9 3.3 0 25-16.7 32.9-25.4 2.5-2.7 5.5-6 6.8-7.3 1.2-1.3 2.2-2.6 2.2-3 0-.3 1.3-2.2 2.9-4.2 5.2-6.5 12.9-23.6 14.6-32.2 2.7-13.7 2.7-27.3 0-38.5-2.8-11.2-8.7-24.4-13.5-30.1-.5-.7-1-1.5-1-1.9 0-3.5-29.3-32.4-32.9-32.4-.6 0-1.1-.4-1.1-.8 0-1.2-26-16.2-29-16.7-.3-.1-2.3-.9-4.5-2-2.2-1-4.4-1.9-5-2-.5-.2-3.5-1.2-6.5-2.3-6.6-2.4-17.5-5.7-24.8-7.4l-5.2-1.3 13.2-18.1c7.3-9.9 16.7-22.7 20.8-28.3 8.8-12.1 20.1-27.5 22.7-31.1 1-1.3 10.7-14.6 21.6-29.4l19.8-27-2.8-2.6c-6.9-6.2-30.3-21.8-33.8-22.4-.5-.1-2.4-1-4.1-1.9-12.3-6.5-45.1-16.7-58.4-18.2-1.4-.1-6.1-.8-10.5-1.5-8.7-1.3-47-2-54.9-1z"/></svg>