<svg xmlns="http://www.w3.org/2000/svg" width="341" height="306" viewBox="0 0 341 306">
  <g fill="none" fill-rule="evenodd" stroke="#e01258" transform="translate(16 12)">
    <path d="M22.38627,20.94485 C11.84908,40.60486 1.35433,61.47291 2.23686,84.40178 C-3.60233,101.4022 11.15412,120.84341 28.92545,109.69341 C47.82235,97.23277 57.113,75.55897 65.64062,55.40559 C77.90489,40.86657 56.90825,35.68789 46.38693,32.04803 C39.30326,26.77476 30.4068,24.5076 22.38627,20.94485 Z"/>
    <path d="M21.56896 21.52663C15.80541 10.16031 33.17154-9.98254 38.40725 8.29059 38.38395 14.97016 35.16416 21.08278 32.99753 27.24092M57.99753 37.24092C56.00465 25.37318 80.01139 7.78 75.5436 29.67159 69.66886 37.65122 71.11007 44.70494 81.86785 42.69293 99.68266 45.7511 115.9697 54.23738 128.97792 66.68841 148.21566 84.19827 170.89367 97.28355 190.07694 114.81778 201.73675 136.57364 217.76728 108.56896 233.8156 105.54384 252.12489 98.45585 275.232 99.75989 289.65999 114.25474 308.22197 128.88687 309.95175 159.43949 293.73197 176.52799 282.98578 189.97427 270.42474 203.07326 253.09994 207.31992 238.25219 211.9224 222.47583 212.68038 207.05746 211.49754 194.4529 202.90577 181.21109 193.03493 177.80283 177.15853 171.15063 157.00916 173.80131 129.12038 194.75295 118.55095 198.4049 117.01072 202.70094 117.08722 206.23403 118.92964"/>
    <path d="M192.09189 198.73169C193.33049 221.27798 187.43079 243.2997 184.01067 265.40176 192.93114 271.73756 177.69776 283.30917 180.98022 266.41191M218.35586 211.86368C214.67517 229.30633 212.81157 247.64589 207.09655 264.3072 207.7425 269.29066 209.00467 286.95138 202.63744 276.76061 202.67834 273.91668 204.81109 271.59633 207.24418 270.45253M273.91425 196.71139C275.79935 203.10649 261.06136 222.78344 262.80257 204.79261M265.83303 213.88398C266.1058 229.88616 258.34283 245.11174 258.07147 260.84185 257.47642 271.79998 244.43836 270.3108 241.63404 275.52229 245.7309 278.81968 249.86767 275.69483 250.68074 272.47283M304.21883 161.35605C306.0627 180.31937 301.56448 201.37723 286.92808 214.40375 279.22926 214.37175 278.4806 200.15778 278.96501 194.69108M281.99547 216.91444C282.25271 234.85129 280.58809 253.25505 284.80122 270.62336 283.84216 275.44387 267.03188 280.44438 274.96512 281.72815 276.36018 279.80493 275.62054 275.2961 277.95486 274.49314M297.14776 117.91949C303.31672 116.4997 315.21195 120.3529 302.24678 118.12838 291.59254 118.57398 297.03143 115.04146 302.29128 110.93071 299.76149 111.74349 292.51607 112.92693 293.10716 115.89919M6.22382 106.80781C6.74051 114.79957-7.71798 129.67109 9.11362 128.77754 23.41242 134.16714 15.66958 113.92092 20.36596 107.81797M12.28474 111.85858C9.84557 116.87091 7.73111 122.03639 5.21367 127.01086M41.57916 9.83317C39.89923 13.86716 35.89814 33.40604 40.56901 15.89408M40.56901 27.00576C45.30237 26.19654 37.49846 19.93123 41.57916 18.92454M44.60962 29.02607C37.58312 26.77044 48.2546 19.41438 48.65023 15.89408"/>
    <path d="M49.66038 16.90424C44.3975 24.13663 49.43005 33.2042 53.8204 21.97081 55.31454 20.07428 56.62633 18.03494 57.7416 15.89408M53.70099 30.03622C51.23098 25.79697 56.88477 18.22782 56.73145 15.89408M60.77206 20.94485C57.78674 25.01305 51.99134 28.28881 52.69084 34.07683M72.89389 40.13774C78.28991 23.60045 70.00623 55.45016 77.83028 42.18287 79.25202 33.55929 94.58325 27.63396 86.22611 40.51655 92.10282 34.18499 86.76227 46.28266 92.68115 39.92219 85.99966 49.57376 105.46298 34.5483 96.17478 44.9791 92.25942 51.27541 116.39956 33.5837 103.96326 47.64696 99.52847 54.2216 122.94403 38.5799 110.64503 50.65009 117.3469 51.74434 125.61086 42.74171 116.23243 52.06099 109.85964 64.24283 137.80467 39.2583 124.62194 55.16951 135.32714 48.78643 120.42489 68.02077 130.82988 58.67657 124.53987 66.89707 128.48679 67.24189 135.48231 62.77185 134.91041 66.52637 125.94865 75.08401 137.04536 69.66714 143.43578 64.57301 150.36766 64.13841 143.68899 72.84378 145.47774 77.12465 162.56849 62.34744 152.46476 74.87833 146.02478 84.08159 167.44347 63.0296 157.5213 77.23802 154.45308 79.59545 164.8178 78.77585 157.80662 84.65072 155.64273 90.99931 169.45508 76.30079 162.79747 87.61491 157.90972 95.58021 161.51418 93.86461 165.63766 88.17087 167.23818 96.28289 169.98392 100.00273 173.6666 90.10596 182.7283 83.61466 172.59309 116.60139 180.79193 98.30732 189.24277 89.96015 178.47692 120.13005 187.68236 104.09625 194.57371 96.47934 187.73196 126.39496 194.18915 109.03099 196.98348 99.82033 198.17369 117.09254 200.16353 106.70696 204.50185 113.87573 200.85398 121.60156 204.48426 109.8815 206.60739 110.11784 204.111 115.48822 206.23403 116.90929M18.2924 48.37681C18.17972 48.44441 17.17568 49.43483 17.14632 49.52289 17.12822 49.57719 17.12822 51.18773 17.14632 51.242 17.18902 51.37013 17.31203 51.46811 17.43284 51.52851 17.51824 51.57121 17.62875 51.49831 17.71936 51.52851 17.92196 51.59601 18.0898 51.7475 18.2924 51.81503 18.44746 51.86673 19.34086 51.81503 19.43847 51.81503 19.53397 51.81503 19.15195 51.91053 19.15195 51.81503 19.15195 51.71953 19.34296 51.81503 19.43847 51.81503 19.5883 51.81503 20.5092 51.85273 20.58454 51.81503 21.77696 51.21882 20.27824 51.83483 20.87106 51.242 20.93856 51.1745 21.07216 51.2847 21.15758 51.242 21.27839 51.1816 21.32329 51.01588 21.4441 50.95548 21.5295 50.91278 21.73062 50.85998 21.73062 50.95548 21.73062 51.05098 21.51163 51.02298 21.4441 50.95548 21.3766 50.88798 21.4441 50.76447 21.4441 50.66896 21.4441 50.57346 21.4441 50.47795 21.4441 50.38244 21.4441 50.24735 21.4571 48.96284 21.4441 48.94985 21.30903 48.81478 21.00613 49.08492 20.87106 48.94985 20.80356 48.88235 20.93856 48.73087 20.87106 48.66333 20.73599 48.52827 20.43309 48.7984 20.29802 48.66333 20.23052 48.59583 20.29802 48.47232 20.29802 48.37681 20.01151 48.1858 19.72499 47.99479 19.43847 47.80378 19.05644 47.99479 18.65865 48.15707 18.2924 48.37681zM40.06778 54.96673C40.06778 55.06223 40.16328 55.25325 40.06778 55.25325 39.93272 55.25325 39.91633 54.96673 39.78127 54.96673 39.68577 54.96673 39.84877 55.18572 39.78127 55.25325 39.71377 55.32075 39.56228 55.18575 39.49475 55.25325 39.42725 55.32075 39.59025 55.53977 39.49475 55.53977 39.39925 55.53977 39.59025 55.25325 39.49475 55.25325 39.01962 55.25325 39.29385 55.65506 39.20823 55.82629 39.14783 55.9471 38.98212 55.992 38.92171 56.11281 38.87901 56.19821 39.01721 56.39933 38.92171 56.39933 38.78665 56.39933 38.53969 56.20831 38.63519 56.11281 38.73069 56.01731 38.86131 56.27852 38.92171 56.39933 39.01171 56.57941 38.83171 57.36532 38.92171 57.5454 39.47604 58.65406 38.94041 56.72325 39.49475 57.83192 39.53745 57.91732 39.45205 58.03301 39.49475 58.11844 39.55515 58.23924 39.68576 58.30945 39.78127 58.40495 39.87677 58.50045 39.93272 58.69147 40.06778 58.69147 40.20285 58.69147 40.21924 58.40495 40.3543 58.40495 40.4498 58.40495 40.2868 58.62394 40.3543 58.69147 40.4218 58.75897 40.54531 58.69147 40.64082 58.69147 40.64082 58.78697 40.57332 58.91046 40.64082 58.97799 40.70832 59.04549 40.83183 58.97799 40.92734 58.97799 41.02284 58.97799 41.11835 58.97799 41.21386 58.97799 41.82185 58.97799 41.17886 58.97799 41.78689 58.97799 41.88239 58.97799 41.97791 58.97799 42.07341 58.97799 42.16891 58.97799 42.2924 59.04549 42.35993 58.97799 42.42743 58.91049 42.29243 58.75901 42.35993 58.69147 43.03187 58.01953 42.35993 59.70927 42.35993 58.40495 42.35993 58.30945 42.60374 58.49035 42.64645 58.40495 42.73185 58.23411 42.64645 58.02293 42.64645 57.83192 42.64645 57.73642 42.64645 58.21394 42.64645 58.11844 42.64645 57.92742 42.56105 57.71624 42.64645 57.5454 42.68915 57.46 42.86543 57.6129 42.93297 57.5454 43.00047 57.4779 42.93297 57.35439 42.93297 57.25888 42.93297 57.0558 42.96997 55.61385 42.93297 55.53977 42.87257 55.41896 42.68916 55.38139 42.64645 55.25325 42.58605 55.07204 42.81729 54.76564 42.64645 54.68022 42.45544 54.58472 42.22442 54.81573 42.07341 54.96673 42.00591 55.03423 42.45054 54.99693 42.35993 54.96673 41.98636 54.84221 41.4923 54.95873 41.21386 54.68022 41.01126 54.47762 42.07341 54.3937 42.07341 54.68022 42.07341 54.96673 41.50038 54.68022 41.21386 54.68022 40.83183 54.77572 40.44981 54.87123 40.06778 54.96673z"/>
  </g>
</svg>
