<svg class="font-awesome font-awesome--codepen" viewBox="0 0 448 512"><path d="M439.5 171.7L234.7 35.2c-7-4.3-14.4-4.3-21.5 0L8.5 171.7c-5.3 3.5-8.5 9.8-8.5 16v136.5c0 6.2 3.3 12.5 8.5 16l204.7 136.5c7 4.3 14.4 4.3 21.5 0l204.7-136.5c5.3-3.5 8.5-9.8 8.5-16V187.7c.1-6.2-3.2-12.5-8.4-16zM243.3 87.2L394 187.7l-67.3 45-83.4-55.7V87.2zm-38.6 0V177l-83.5 55.8-67.3-45L204.7 87.2zM38.5 223.7L86.8 256l-48.3 32.3v-64.6zm166.2 201L54 324.2l67.3-45 83.5 55.8v89.7zM224 301.5L156 256l68-45.5 68 45.5-68 45.5zm19.3 123.2V335l83.5-55.8 67.3 45-150.8 100.5zm166.2-136.5L361.2 256l48.3-32.3v64.5z"/></svg>