<svg width="282" height="282" viewBox="0 0 282 282"><defs><radialGradient id="logo-a" cx="100%" cy=".007%" r="161.114%" fx="100%" fy=".007%" gradientTransform="scale(1 .7222)"><stop offset="0%" stop-color="#E01258"/><stop offset="100%" stop-color="#EC3211"/></radialGradient><radialGradient id="logo-b" cx="100%" cy=".017%" r="161.114%" fx="100%" fy=".017%" gradientTransform="scale(1 .82629)"><stop offset="0%" stop-color="#E01258"/><stop offset="100%" stop-color="#EC3211"/></radialGradient></defs><g fill="none" transform="translate(33 57)"><path fill="url(#logo-a)" d="M0 0v167.93h40.426c44.654 0 80.853-24.737 80.853-55.253 0-23.821-22.06-44.122-52.98-51.882 11.218-6.334 18.329-15.75 18.329-26.262C86.628 15.461 63.223 0 34.352 0c-1.509 0-3.003.042-4.48.125V0H0z"/><path fill="url(#logo-b)" d="M151.08 94.88l-39.263 53.662c12.943 11.773 33.547 19.388 56.754 19.388 39.178 0 70.938-21.704 70.938-48.478 0-21.876-21.202-40.367-50.329-46.4l39.263-53.663C215.5 7.615 194.896 0 171.69 0c-39.179 0-70.94 21.705-70.94 48.478 0 21.876 21.203 40.367 50.33 46.401z"/></g></svg>