<svg class="font-awesome font-awesome--medium" viewBox="0 0 448 512"><path d="M446.1 140.2l-139.7 227-97.6-158.7 87.5-142.1c.9-1.5 2.6-2.4 4.4-2.4h.1c.7 0 1.4.2 2 .5l141.9 71c1.8.8 2.4 3.1 1.4 4.7zM162.5 311.7l136.1 68.1-136.1-221.2v153.1zm148.1 73.9l125 60.9c6.8 3.4 12.4 0 12.4-7.7V162.3L310.6 385.6zM147.5 136.2l-131-65.5-8.3-4.1c-1.2-.6-2.3-.9-3.4-.9-1.5 0-2.7.6-3.6 1.6-.9 1-1.4 2.5-1.4 4.4v298.9c0 5.1 3.7 11.1 8.3 13.4l128.7 62.8c1.8.9 3.5 1.3 5 1.3 4.3 0 7.4-3.4 7.4-9V139.2c.1-1.3-.6-2.4-1.7-3z"/></svg>