<svg width="360" height="270" viewBox="0 0 360 270"><defs><radialGradient id="sb-b" cx="100%" cy=".014%" r="161.114%" fx="100%" fy=".014%" gradientTransform="scale(1 .7222)"><stop offset="0%" stop-color="#E01258"/><stop offset="100%" stop-color="#EC3211"/></radialGradient><radialGradient id="sb-c" cx="100%" cy=".024%" r="161.114%" fx="100%" fy=".024%" gradientTransform="scale(1 .82629)"><stop offset="0%" stop-color="#E01258"/><stop offset="100%" stop-color="#EC3211"/></radialGradient></defs><g fill="none" transform="translate(30 30)"><path fill="url(#sb-b)" d="M0 0v209.913h50.533c55.817 0 101.065-30.922 101.065-69.067 0-29.776-27.573-55.152-66.224-64.852 14.022-7.918 22.91-19.687 22.91-32.827C108.285 19.327 79.03 0 42.94 0c-1.886 0-3.754.053-5.6.156V0H0z"/><path fill="url(#sb-c)" d="M188.85 118.599l-49.078 67.078c16.178 14.717 41.933 24.236 70.941 24.236 48.973 0 88.674-27.13 88.674-60.598 0-27.344-26.503-50.459-62.912-58.001l49.079-67.078C269.376 9.519 243.62 0 214.612 0 165.64 0 125.94 27.13 125.94 60.598c0 27.344 26.502 50.458 62.911 58z"/></g></svg>