<svg xmlns="http://www.w3.org/2000/svg" width="282" height="282" viewBox="0 0 282 282">
  <defs>
    <radialGradient id="logo-a" cx="100%" cy=".007%" r="161.114%" fx="100%" fy=".007%" gradientTransform="matrix(1 0 0 .7222 0 0)">
      <stop offset="0%" stop-color="#E01258"/>
      <stop offset="100%" stop-color="#EC3211"/>
    </radialGradient>
    <radialGradient id="logo-b" cx="100%" cy=".017%" r="161.114%" fx="100%" fy=".017%" gradientTransform="matrix(1 0 0 .82629 0 0)">
      <stop offset="0%" stop-color="#E01258"/>
      <stop offset="100%" stop-color="#EC3211"/>
    </radialGradient>
  </defs>
  <g fill="none" transform="translate(33 57)">
    <path fill="url(#logo-a)" d="M0,0 L0,167.930254 L40.4262376,167.930254 L40.4262601,167.930254 C85.0798488,167.930254 121.278735,143.192556 121.278735,112.67706 C121.278735,88.8556968 99.219648,68.5552426 68.2995442,60.7950318 C79.5169695,54.4611841 86.627668,45.0457777 86.627668,34.5332462 C86.627668,15.461061 63.2232114,0 34.3523511,0 C32.8429754,0 31.3485404,0.0422585517 29.8716097,0.125082374 L29.8716097,0 L0,0 Z"/>
    <path fill="url(#logo-b)" d="M151.079988,94.8791128 L111.817495,148.541741 C124.759851,160.315006 145.363895,167.930254 168.570633,167.930254 C207.749065,167.930254 239.50946,146.225745 239.50946,119.451877 C239.50946,97.5764208 218.307408,79.085079 189.180325,73.0511406 L228.442818,19.388513 C215.500462,7.61524798 194.896418,0 171.68968,0 C132.511248,0 100.750854,21.7045086 100.750854,48.4783767 C100.750854,70.3538331 121.952905,88.8451744 151.079988,94.8791128 Z"/>
  </g>
</svg>
