<svg xmlns="http://www.w3.org/2000/svg" width="360" height="270" viewBox="0 0 360 270">
  <defs>
    <filter id="sb-white-a" width="101.3%" height="101.9%" x="-.7%" y="-.5%" filterUnits="objectBoundingBox">
      <feOffset dy="1" in="SourceAlpha" result="shadowOffsetOuter1"/>
      <feGaussianBlur in="shadowOffsetOuter1" result="shadowBlurOuter1" stdDeviation=".5"/>
      <feColorMatrix in="shadowBlurOuter1" result="shadowMatrixOuter1" values="0 0 0 0 0.878431373   0 0 0 0 0.0705882353   0 0 0 0 0.345098039  0 0 0 1 0"/>
      <feMerge>
        <feMergeNode in="shadowMatrixOuter1"/>
        <feMergeNode in="SourceGraphic"/>
      </feMerge>
    </filter>
  </defs>
  <g fill="#FFF" filter="url(#sb-white-a)" transform="translate(30 30)">
    <path d="M3.07763301e-14,0 L0,209.912817 L50.532797,209.912817 L50.5328251,209.912817 C106.349811,209.912817 151.598419,178.990695 151.598419,140.846325 C151.598419,111.069621 124.02456,85.6940533 85.3744302,75.9937897 C99.3962119,68.0764801 108.284585,56.3072221 108.284585,43.1665578 C108.284585,19.3263262 79.0290143,0 42.9404389,0 C41.0537192,0 39.1856755,0.0528231896 37.3395121,0.156352968 L37.3395121,0 L3.07763301e-14,0 Z"/>
    <path d="M188.849985,118.598891 L139.771869,185.677176 C155.949814,200.393757 181.704869,209.912817 210.713291,209.912817 C259.686331,209.912817 299.386825,182.782181 299.386825,149.314846 C299.386825,121.970526 272.88426,98.8563488 236.475406,91.3139257 L285.553522,24.2356413 C269.375577,9.51905998 243.620522,0 214.6121,0 C165.63906,0 125.938567,27.1306357 125.938567,60.5979709 C125.938567,87.9422914 152.441131,111.056468 188.849985,118.598891 Z"/>
  </g>
</svg>
